<svg version="1.1" id="Layer_1" xmlns="http://www.w3.org/2000/svg" xmlns:xlink="http://www.w3.org/1999/xlink" x="0px" y="0px"
	 width="100%" viewBox="0 0 1000 646" enable-background="new 0 0 1000 646" xml:space="preserve">
<path fill="#000000" opacity="1.000000" stroke="none" 
	d="
M702.000000,647.000000 
	C468.000061,647.000000 234.500137,647.000000 1.000157,647.000000 
	C1.000104,431.666809 1.000104,216.333603 1.000052,1.000301 
	C334.333099,1.000201 667.666199,1.000201 1000.999512,1.000100 
	C1000.999634,216.333023 1000.999634,431.666046 1000.999817,646.999512 
	C901.500000,647.000000 802.000000,647.000000 702.000000,647.000000 
M376.064941,187.553970 
	C376.365143,187.728745 376.665375,187.903519 376.999359,188.001846 
	C376.999359,188.001846 376.929504,188.047516 377.168762,188.703247 
	C378.098083,189.493454 379.027435,190.283661 379.999023,191.002594 
	C379.999023,191.002594 379.921112,191.030457 380.061829,191.554001 
	C380.363892,191.729248 380.665955,191.904510 380.997833,192.002411 
	C380.997833,192.002411 380.920410,192.032074 381.056183,192.559784 
	C381.360565,192.733582 381.664978,192.907379 381.997345,193.002579 
	C381.997345,193.002579 381.918610,193.030121 382.055817,193.558548 
	C382.360718,193.732681 382.665619,193.906830 382.997345,194.002563 
	C382.997345,194.002563 382.918823,194.029099 383.057587,194.556992 
	C383.362305,194.731506 383.667053,194.906036 383.996979,195.001404 
	C383.996979,195.001404 383.923065,195.039444 383.995636,195.748459 
	C384.985016,196.525177 385.974365,197.301895 386.998260,198.002197 
	C386.998260,198.002197 386.921631,198.036270 386.997345,198.743469 
	C387.988037,199.522293 388.978760,200.301132 389.997742,201.002457 
	C389.997742,201.002457 389.920288,201.030975 390.000671,201.732147 
	C393.981171,205.843964 397.961670,209.955780 402.000000,214.000366 
	C402.000000,214.000366 401.930817,214.055435 402.169006,214.709457 
	C403.429565,215.831253 404.690125,216.953064 405.998962,218.001282 
	C405.998962,218.001282 405.922485,218.044708 405.997589,218.748291 
	C406.651031,219.191681 407.304474,219.635086 407.998810,220.003326 
	C407.998810,220.003326 407.918396,220.032333 408.053253,220.560867 
	C408.357910,220.734528 408.662598,220.908203 408.996826,221.000992 
	C408.996826,221.000992 408.923279,221.045990 408.999207,221.746414 
	C410.987793,223.523926 412.976379,225.301422 414.999237,227.003555 
	C414.999237,227.003555 414.921570,227.032059 415.115723,227.629852 
	C415.505280,227.712341 415.894836,227.794846 416.514893,228.040054 
	C416.514893,228.040054 416.794800,228.004715 417.139496,228.644730 
	C418.074738,228.797256 419.009979,228.949783 420.375702,229.866623 
	C430.510681,229.912613 440.646179,230.036209 450.780396,229.967575 
	C455.015228,229.938904 457.791321,232.089142 458.766510,235.772644 
	C459.493805,238.519684 458.828613,241.625809 458.848358,244.571594 
	C458.897369,251.881744 458.944519,259.192627 459.134918,266.499542 
	C459.148926,267.036804 460.304810,267.544373 460.992065,268.792480 
	C467.071686,276.627319 473.151276,284.462189 478.960205,291.948212 
	C473.522705,298.586975 466.844757,301.861359 458.999237,303.187744 
	C458.999237,309.590668 458.998810,315.717743 458.999268,321.844818 
	C459.001801,355.434387 458.972992,389.024048 459.092194,422.613190 
	C459.098755,424.463074 460.336792,426.308563 461.110382,428.623566 
	C461.307281,428.910828 461.579834,429.058716 462.012695,429.723175 
	C462.665131,430.501221 463.317566,431.279236 463.992035,431.997833 
	C463.992035,431.997833 463.929840,432.010040 464.061737,432.548950 
	C464.372711,432.722137 464.683655,432.895355 465.002472,433.005798 
	C465.002472,433.005798 464.941040,433.020905 465.009674,433.722961 
	C470.748077,439.696503 476.440582,445.715363 482.259216,451.609711 
	C483.607849,452.975922 485.387085,453.917053 486.996460,454.999512 
	C486.996460,454.999512 486.941071,455.025665 487.006287,455.731873 
	C487.995667,456.507812 488.985046,457.283752 489.998962,458.003265 
	C489.998962,458.003265 489.942810,458.028351 490.006226,458.732513 
	C491.327545,459.840332 492.648895,460.948181 493.998932,462.001526 
	C493.998932,462.001526 493.945496,462.032013 494.010651,462.733002 
	C496.773468,465.748871 499.485138,468.813568 502.308838,471.771332 
	C510.399109,480.245941 518.364380,488.851257 526.732910,497.043488 
	C530.300537,500.536011 532.738953,505.978516 539.627747,505.997314 
	C540.095581,505.690979 540.563477,505.384644 541.071045,505.067902 
	C541.071045,505.067902 541.106384,505.047028 541.794067,504.704742 
	C542.858337,499.209564 544.298218,493.752045 544.854187,488.205902 
	C545.221741,484.539581 544.113953,480.751099 544.022644,477.008636 
	C543.611084,460.146667 543.234924,443.282715 543.026611,426.417267 
	C542.872742,413.959412 543.069092,401.497253 542.915039,389.039429 
	C542.894043,387.337372 541.745117,385.649261 541.011414,383.406525 
	C540.949158,383.231110 540.886841,383.055695 540.961426,382.078674 
	C539.747009,378.297668 538.482727,374.531647 537.339661,370.729156 
	C536.786499,368.889160 536.064392,366.971161 536.109436,365.105164 
	C536.225586,360.297760 540.616760,355.817200 537.146484,350.609253 
	C536.857727,350.175934 538.123535,347.995941 539.085693,347.567291 
	C542.593811,346.004608 542.999634,343.220642 543.028992,339.913391 
	C543.316772,307.493774 543.661316,275.074646 544.017029,242.655670 
	C544.113586,233.851868 546.079224,231.174316 552.869263,231.046799 
	C561.202515,230.890289 569.540894,231.009171 577.877075,231.008743 
	C598.690002,231.007675 619.503540,231.100281 640.315552,230.959457 
	C648.708740,230.902649 657.099792,230.364044 665.488098,229.966522 
	C666.682739,229.909912 667.856323,229.409912 669.635376,229.003693 
	C670.088623,228.725372 670.541931,228.447052 671.578857,227.903320 
	C671.665039,227.306885 671.751160,226.710464 671.987793,225.454315 
	C671.679199,224.953094 671.370667,224.451859 671.044617,224.023071 
	C671.044617,224.023071 671.103821,223.976501 671.012329,223.254349 
	C666.083374,213.671326 657.476196,207.635452 649.472473,201.037064 
	C648.718079,200.415192 647.446106,200.421082 646.103516,199.623520 
	C646.013611,199.446426 645.923767,199.269348 645.975220,198.336487 
	C645.099731,193.511536 641.560486,190.895996 637.368530,187.936493 
	C635.099121,185.696182 632.829773,183.455887 630.142090,180.684601 
	C627.550659,177.717880 624.944580,174.763733 622.371277,171.781372 
	C618.867432,167.720505 615.729370,163.267456 611.809875,159.661545 
	C607.230896,155.448944 601.979248,151.967514 596.373657,148.003281 
	C595.931458,147.961197 595.489319,147.919113 594.672363,147.162750 
	C592.278809,146.773972 589.877869,146.017426 587.492981,146.064804 
	C580.102844,146.211609 572.720825,146.886459 565.331970,146.952621 
	C549.015747,147.098709 532.697205,146.997726 516.379639,146.998093 
	C461.916809,146.999298 407.453979,146.992752 352.991180,147.039734 
	C351.312500,147.041183 349.634247,147.599350 347.219635,147.993622 
	C346.141510,148.290787 345.063354,148.587952 343.382416,149.130432 
	C343.230804,150.105316 343.079193,151.080185 343.002808,152.789886 
	C343.324982,153.658066 343.409485,154.763962 344.004730,155.359039 
	C354.279297,165.630676 364.616760,175.839371 374.999542,186.001068 
	C374.999542,186.001068 374.921906,186.034409 375.062103,186.556122 
	C375.363312,186.730209 375.664551,186.904297 375.997864,187.001923 
	C375.997864,187.001923 375.921539,187.034439 376.064941,187.553970 
z"/>
<path fill="#F8FAFB" opacity="1.000000" stroke="none" 
	d="
M669.039673,229.115143 
	C667.856323,229.409912 666.682739,229.909912 665.488098,229.966522 
	C657.099792,230.364044 648.708740,230.902649 640.315552,230.959457 
	C619.503540,231.100281 598.690002,231.007675 577.877075,231.008743 
	C569.540894,231.009171 561.202515,230.890289 552.869263,231.046799 
	C546.079224,231.174316 544.113586,233.851868 544.017029,242.655670 
	C543.661316,275.074646 543.316772,307.493774 543.028992,339.913391 
	C542.999634,343.220642 542.593811,346.004608 539.085693,347.567291 
	C538.123535,347.995941 536.857727,350.175934 537.146484,350.609253 
	C540.616760,355.817200 536.225586,360.297760 536.109436,365.105164 
	C536.064392,366.971161 536.786499,368.889160 537.339661,370.729156 
	C538.482727,374.531647 539.747009,378.297668 540.625854,382.309326 
	C531.281799,373.648590 522.273438,364.757233 513.097534,355.563354 
	C510.825867,353.422607 508.602142,351.703278 506.636536,349.727234 
	C491.796631,334.808502 477.007446,319.839294 462.093323,304.725677 
	C461.798126,304.710846 461.612000,304.856171 461.339905,305.458527 
	C461.332062,310.281281 461.410248,314.646973 461.421814,319.256348 
	C461.398499,319.662659 461.441833,319.825378 461.378693,320.408142 
	C461.334778,322.557495 461.397369,324.286774 461.363220,326.464539 
	C461.332092,330.283966 461.397766,333.654968 461.362183,337.482666 
	C461.329254,345.635529 461.397552,353.331635 461.368530,361.482361 
	C461.338226,366.977692 461.405212,372.018402 461.377930,377.509827 
	C461.359894,381.987854 461.436096,386.015167 461.412109,390.426575 
	C461.368439,391.861328 461.424957,392.912048 461.374573,394.394501 
	C461.332947,396.893250 461.398193,398.960236 461.368439,401.483582 
	C461.340515,406.969788 461.407593,411.999634 461.380066,417.434082 
	C461.346436,419.216400 461.407379,420.594147 461.373169,422.311890 
	C461.340759,423.114014 461.403503,423.576172 461.371460,424.442566 
	C461.185028,425.949890 461.093323,427.052979 461.001587,428.156067 
	C460.336792,426.308563 459.098755,424.463074 459.092194,422.613190 
	C458.972992,389.024048 459.001801,355.434387 458.999268,321.844818 
	C458.998810,315.717743 458.999237,309.590668 458.999237,303.187744 
	C466.844757,301.861359 473.522705,298.586975 478.960205,291.948212 
	C473.151276,284.462189 467.071686,276.627319 460.983551,268.408020 
	C460.975037,268.023560 461.020020,267.981140 461.367340,267.930908 
	C463.082428,269.083771 464.508545,270.227234 465.808319,271.499756 
	C473.184784,278.721558 480.531128,285.974243 488.040222,293.505615 
	C505.273132,310.793518 522.353516,327.792175 539.751587,345.106934 
	C540.136963,343.426300 540.422729,342.180328 540.764465,340.718719 
	C540.820496,340.503082 540.716492,340.069824 540.788818,339.606537 
	C540.725281,334.108093 540.589539,329.072906 540.588989,323.648651 
	C540.717224,317.506439 540.710266,311.753357 540.780151,305.538025 
	C540.802246,298.717712 540.747559,292.359558 540.770020,285.539673 
	C540.800415,279.384186 540.753601,273.690460 540.782837,267.556519 
	C540.719604,263.733093 540.580383,260.349915 540.506714,256.528198 
	C540.613586,252.059570 540.654907,248.029526 540.773193,243.539215 
	C540.822327,238.362076 540.794556,233.645203 540.843689,228.962036 
	C540.920654,228.995728 541.083984,229.033646 541.270386,228.938538 
	C541.697632,228.689438 541.882935,228.485031 542.453613,228.182098 
	C545.262512,228.059891 547.630432,227.985794 550.463257,227.976776 
	C558.284851,227.999893 565.641602,227.957916 573.463318,227.980621 
	C583.286072,228.002472 592.643860,227.959641 602.466370,227.982971 
	C612.954529,228.005310 622.978027,227.961472 633.465881,227.986572 
	C641.955139,228.009888 649.979980,227.964233 658.457275,227.989517 
	C662.256226,228.127457 665.602600,228.194473 668.958740,228.476288 
	C668.968445,228.691071 669.039673,229.115143 669.039673,229.115143 
z"/>
<path fill="#0DF4FD" opacity="1.000000" stroke="none" 
	d="
M461.056000,428.389832 
	C461.093323,427.052979 461.185028,425.949890 461.712280,424.502930 
	C466.622314,425.433167 471.188843,426.380371 471.567169,432.559479 
	C471.652191,433.947754 473.595490,435.704041 475.099548,436.438080 
	C480.805786,439.222961 484.815277,445.794708 492.462158,444.367676 
	C493.001678,444.266998 493.717773,444.782990 494.271637,445.137451 
	C504.841736,451.901489 515.358826,458.749573 525.978943,465.433807 
	C530.787231,468.460114 535.795410,471.168854 540.791992,474.482544 
	C540.949585,484.977966 541.027954,495.012512 541.106323,505.047028 
	C541.106384,505.047028 541.071045,505.067902 540.709839,505.043152 
	C539.891418,505.020782 539.434204,505.023132 538.684875,504.866760 
	C524.944641,491.293213 511.515594,477.859039 498.012543,464.499664 
	C496.916168,463.415009 495.313110,462.842499 493.945496,462.032013 
	C493.945496,462.032013 493.998932,462.001526 494.271545,461.728333 
	C493.010376,460.312866 491.476593,459.170593 489.942810,458.028351 
	C489.942810,458.028351 489.998962,458.003265 490.249878,457.702271 
	C489.314240,456.609406 488.127655,455.817535 486.941071,455.025665 
	C486.941071,455.025665 486.996460,454.999512 487.275269,454.749878 
	C480.563782,447.388123 473.582733,440.266815 466.551117,433.195770 
	C466.255127,432.898102 465.488464,433.068512 464.941040,433.020874 
	C464.941040,433.020905 465.002472,433.005798 465.138428,432.652588 
	C464.826172,432.202942 464.378021,432.106476 463.929840,432.010010 
	C463.929840,432.010040 463.992035,431.997833 464.256134,431.754517 
	C463.656158,430.696503 462.792084,429.881836 461.928009,429.067169 
	C461.579834,429.058716 461.307281,428.910828 461.056000,428.389832 
z"/>
<path fill="#48B7FE" opacity="1.000000" stroke="none" 
	d="
M513.265015,355.865906 
	C522.273438,364.757233 531.281799,373.648590 540.557373,382.710114 
	C540.886841,383.055695 540.949158,383.231110 540.995728,384.109406 
	C540.888489,386.545654 540.796997,388.279022 540.314575,390.009827 
	C533.499695,390.702332 529.931519,385.327759 525.410767,382.533722 
	C510.334808,373.216034 495.641235,363.235077 481.218018,352.924957 
	C474.371063,348.030548 465.775299,345.120453 461.463440,337.025940 
	C461.397766,333.654968 461.332092,330.283966 461.717346,326.460693 
	C463.975555,326.711945 465.973389,327.124908 467.559937,328.165222 
	C479.782562,336.179596 491.856232,344.423279 504.147400,352.329437 
	C506.833496,354.057220 510.207733,354.715210 513.265015,355.865906 
z"/>
<path fill="#7B84FF" opacity="1.000000" stroke="none" 
	d="
M416.794800,228.004715 
	C416.794800,228.004715 416.514893,228.040054 416.264587,227.679291 
	C415.650055,227.223038 415.285797,227.127548 414.921570,227.032043 
	C414.921570,227.032059 414.999237,227.003555 415.054138,226.690353 
	C413.047119,224.600098 410.985199,222.823044 408.923279,221.045990 
	C408.923279,221.045990 408.996826,221.000992 409.027283,220.708832 
	C408.677979,220.288559 408.298187,220.160446 407.918396,220.032333 
	C407.918396,220.032333 407.998810,220.003326 408.081299,219.676300 
	C407.416687,218.914413 406.669586,218.479553 405.922485,218.044708 
	C405.922485,218.044708 405.998962,218.001282 406.114075,217.687378 
	C404.796387,216.267471 403.363617,215.161453 401.930817,214.055435 
	C401.930817,214.055435 402.000000,214.000366 402.150360,213.700562 
	C398.173889,209.277496 394.047089,205.154236 389.920288,201.030975 
	C389.920288,201.030975 389.997742,201.002457 390.036804,200.686554 
	C389.024445,199.592529 387.973022,198.814407 386.921631,198.036270 
	C386.921631,198.036270 386.998260,198.002197 387.060608,197.684448 
	C386.056305,196.590958 384.989685,195.815201 383.923065,195.039444 
	C383.923065,195.039444 383.996979,195.001404 384.019745,194.712555 
	C383.667938,194.292175 383.293396,194.160629 382.918823,194.029083 
	C382.918823,194.029099 382.997345,194.002563 383.022095,193.712128 
	C382.670776,193.291183 382.294678,193.160645 381.918610,193.030121 
	C381.918610,193.030121 381.997345,193.002579 382.024811,192.707794 
	C381.674988,192.286026 381.297699,192.159058 380.920410,192.032074 
	C380.920410,192.032074 380.997833,192.002411 381.033539,191.706268 
	C380.686523,191.283554 380.303833,191.157013 379.921112,191.030457 
	C379.921112,191.030457 379.999023,191.002594 380.103394,190.682114 
	C379.115021,189.590256 378.022278,188.818893 376.929504,188.047516 
	C376.929504,188.047516 376.999359,188.001846 377.046143,187.699188 
	C376.702454,187.275833 376.311981,187.155136 375.921539,187.034439 
	C375.921539,187.034439 375.997864,187.001923 376.045654,186.698761 
	C375.702942,186.275208 375.312439,186.154816 374.921906,186.034424 
	C374.921906,186.034409 374.999542,186.001068 375.163940,185.734695 
	C374.905243,184.644958 374.482208,183.821579 374.439453,183.006256 
	C378.012970,184.316559 381.522949,185.138214 384.347534,186.999802 
	C401.443176,198.267105 418.415863,209.722580 435.340149,221.246643 
	C438.119995,223.139496 440.456818,225.682953 442.533417,227.988739 
	C434.720490,228.113922 427.372528,228.176117 419.628143,228.153442 
	C418.419403,228.047302 417.607117,228.026016 416.794800,228.004715 
z"/>
<path fill="#F8FAFB" opacity="1.000000" stroke="none" 
	d="
M646.414490,200.135468 
	C647.446106,200.421082 648.718079,200.415192 649.472473,201.037064 
	C657.476196,207.635452 666.083374,213.671326 670.753296,223.871185 
	C665.805542,219.857758 661.235413,215.097366 656.366760,210.664810 
	C654.558105,209.018097 652.126526,207.287094 649.845581,207.082657 
	C644.609680,206.613388 639.291870,207.058792 633.542847,207.060883 
	C625.387817,207.069199 617.697266,207.149551 609.543579,207.152527 
	C599.388611,207.161728 589.696838,207.248260 579.607544,207.250137 
	C578.134521,207.230148 577.058838,207.294830 575.616821,207.279175 
	C574.507202,207.256897 573.764099,207.314941 572.593018,207.281921 
	C569.727844,206.782455 567.290649,206.374023 564.897827,205.731644 
	C564.942139,205.497696 564.860168,205.028580 564.923340,204.657974 
	C565.045471,203.538666 565.104370,202.789948 565.422180,202.007736 
	C566.118713,201.724503 566.556458,201.474762 567.460815,201.178650 
	C576.952576,201.042175 585.977661,200.952072 595.467407,200.928009 
	C603.625183,200.918411 611.318481,200.842758 619.474365,200.840622 
	C628.292725,200.855942 636.648499,200.797745 645.282959,200.779175 
	C645.845947,200.591049 646.130188,200.363251 646.414490,200.135468 
z"/>
<path fill="#F8FAFB" opacity="1.000000" stroke="none" 
	d="
M630.560364,181.215591 
	C632.829773,183.455887 635.099121,185.696182 637.371338,188.332214 
	C637.374146,188.727936 636.979492,189.019928 636.630127,189.015656 
	C635.194885,189.254166 634.109070,189.496948 632.556885,189.799042 
	C625.394958,189.956772 618.699341,190.055206 611.540161,190.077942 
	C602.385132,190.086212 593.693481,190.170181 584.539246,190.176468 
	C574.059998,190.185989 564.043396,190.273178 553.567017,190.281433 
	C549.171753,190.202484 545.236267,190.202484 541.167908,190.202484 
	C541.167908,187.994965 541.167908,186.520569 541.471802,185.035858 
	C542.509949,184.773682 543.244202,184.521790 544.443298,184.208099 
	C550.270203,184.179077 555.632263,184.211838 561.096313,184.376984 
	C561.198364,184.509369 561.658325,184.566925 561.658325,184.566925 
	C561.658325,184.566925 562.007019,184.229721 562.465637,184.165131 
	C566.951050,184.028763 570.977783,183.956985 575.468750,183.952942 
	C582.956970,183.943924 589.981018,183.867203 597.468750,183.861298 
	C605.975037,183.860397 614.017639,183.788681 622.281616,183.775925 
	C622.502869,183.834900 622.945740,183.718491 623.373840,183.792923 
	C625.534546,183.813843 627.267151,183.760345 629.249878,183.719513 
	C629.553894,183.271271 629.607788,182.810379 629.893311,182.071548 
	C630.270142,181.600922 630.415283,181.408249 630.560364,181.215591 
z"/>
<path fill="#F8FAFB" opacity="1.000000" stroke="none" 
	d="
M347.955811,147.897980 
	C349.634247,147.599350 351.312500,147.041183 352.991180,147.039734 
	C407.453979,146.992752 461.916809,146.999298 516.379639,146.998093 
	C532.697205,146.997726 549.015747,147.098709 565.331970,146.952621 
	C572.720825,146.886459 580.102844,146.211609 587.492981,146.064804 
	C589.877869,146.017426 592.278809,146.773972 594.800049,147.685638 
	C594.927673,148.208511 594.988525,148.555023 594.519409,148.608765 
	C579.362793,148.730774 564.675354,148.799011 549.524963,148.789520 
	C540.703125,148.767838 532.344116,148.823883 523.522156,148.804184 
	C513.366394,148.774994 503.673615,148.821548 493.517365,148.798370 
	C483.366211,148.775406 473.678528,148.822174 463.526367,148.805725 
	C455.706757,148.779816 448.351624,148.817123 440.536255,148.795776 
	C436.033691,148.772369 431.991364,148.807602 427.485321,148.796936 
	C418.677551,148.788208 410.333496,148.825378 401.525146,148.805817 
	C395.037140,148.788498 389.013428,148.827927 382.526978,148.809631 
	C377.375305,148.788757 372.686432,148.825623 367.531891,148.807327 
	C361.042389,148.786789 355.018524,148.821411 348.785522,148.786667 
	C348.576324,148.717300 348.147369,148.615768 348.142334,148.424881 
	C348.137299,148.233994 347.955811,147.897980 347.955811,147.897980 
z"/>
<path fill="#DC24FD" opacity="1.000000" stroke="none" 
	d="
M634.007263,207.132904 
	C639.291870,207.058792 644.609680,206.613388 649.845581,207.082657 
	C652.126526,207.287094 654.558105,209.018097 656.366760,210.664810 
	C661.235413,215.097366 665.805542,219.857758 670.799011,224.232254 
	C671.103821,223.976501 671.044617,224.023071 670.753784,224.222748 
	C670.921143,224.986282 671.379211,225.550156 671.837280,226.114044 
	C671.751160,226.710464 671.665039,227.306885 670.945312,227.977646 
	C669.857544,228.121826 669.403259,228.191666 668.949036,228.261505 
	C665.602600,228.194473 662.256226,228.127457 658.415833,227.649292 
	C652.175964,222.777420 646.355103,218.408737 640.719177,213.813110 
	C638.284851,211.828049 636.232910,209.373947 634.007263,207.132904 
z"/>
<path fill="#F8FAFB" opacity="1.000000" stroke="none" 
	d="
M597.019470,148.168839 
	C601.979248,151.967514 607.230896,155.448944 611.809875,159.661545 
	C615.729370,163.267456 618.867432,167.720505 622.371277,171.781372 
	C624.944580,174.763733 627.550659,177.717880 630.351196,180.950104 
	C630.415283,181.408249 630.270142,181.600922 629.730103,182.043228 
	C629.335144,182.292847 629.005432,182.253754 628.786804,181.981537 
	C627.458313,180.516876 626.254639,179.397644 625.255676,178.118561 
	C621.929993,173.860214 618.081665,171.569458 612.212463,171.915512 
	C603.179504,172.448151 594.086914,171.967484 585.007751,171.652313 
	C584.767334,170.931091 584.538696,170.474258 584.248413,169.605148 
	C583.714722,166.226486 585.552124,166.047562 587.776672,166.075882 
	C595.186035,166.170242 602.596436,166.179214 610.166748,166.403320 
	C610.880493,166.465454 611.433960,166.345184 612.244873,166.048615 
	C607.326233,160.207886 602.150085,154.543457 596.988037,148.701660 
	C597.002075,148.524277 597.019470,148.168839 597.019470,148.168839 
z"/>
<path fill="#F8FAFB" opacity="1.000000" stroke="none" 
	d="
M540.705444,390.012390 
	C540.796997,388.279022 540.888489,386.545654 541.049194,384.383484 
	C541.745117,385.649261 542.894043,387.337372 542.915039,389.039429 
	C543.069092,401.497253 542.872742,413.959412 543.026611,426.417267 
	C543.234924,443.282715 543.611084,460.146667 544.022644,477.008636 
	C544.113953,480.751099 545.221741,484.539581 544.854187,488.205902 
	C544.298218,493.752045 542.858337,499.209564 541.450195,504.875885 
	C541.027954,495.012512 540.949585,484.977966 540.877930,474.019257 
	C540.825867,466.402710 540.766968,459.710358 540.794922,452.556152 
	C540.798279,445.351807 540.714661,438.609253 540.725342,431.486511 
	C540.781616,424.411499 540.743591,417.716736 540.791992,410.558655 
	C540.820740,403.401031 540.763062,396.706696 540.705444,390.012390 
z"/>
<path fill="#F8FAFB" opacity="1.000000" stroke="none" 
	d="
M420.024567,228.238312 
	C427.372528,228.176117 434.720490,228.113922 442.996124,228.052948 
	C448.615814,228.009964 453.307861,227.965759 458.412231,227.993988 
	C463.636719,229.400986 459.893280,233.572601 461.346863,236.446320 
	C461.313538,243.933868 461.384186,250.961472 461.353424,258.434265 
	C461.174652,261.913330 461.097321,264.947235 461.020020,267.981140 
	C461.020020,267.981140 460.975037,268.023560 460.952454,268.044647 
	C460.304810,267.544373 459.148926,267.036804 459.134918,266.499542 
	C458.944519,259.192627 458.897369,251.881744 458.848358,244.571594 
	C458.828613,241.625809 459.493805,238.519684 458.766510,235.772644 
	C457.791321,232.089142 455.015228,229.938904 450.780396,229.967575 
	C440.646179,230.036209 430.510681,229.912613 420.191589,229.269562 
	C420.007446,228.672516 420.024567,228.238312 420.024567,228.238312 
z"/>
<path fill="#F8FAFB" opacity="1.000000" stroke="none" 
	d="
M493.978088,462.382507 
	C495.313110,462.842499 496.916168,463.415009 498.012543,464.499664 
	C511.515594,477.859039 524.944641,491.293213 538.692749,505.069153 
	C538.992798,505.430206 539.004211,505.836182 539.004211,505.836182 
	C532.738953,505.978516 530.300537,500.536011 526.732910,497.043488 
	C518.364380,488.851257 510.399109,480.245941 502.308838,471.771332 
	C499.485138,468.813568 496.773468,465.748871 493.978088,462.382507 
z"/>
<path fill="#F8FAFB" opacity="1.000000" stroke="none" 
	d="
M374.059143,182.998199 
	C374.482208,183.821579 374.905243,184.644958 375.134399,185.765076 
	C364.616760,175.839371 354.279297,165.630676 344.004730,155.359039 
	C343.409485,154.763962 343.324982,153.658066 343.010559,152.442902 
	C343.018341,152.095932 343.092102,152.029068 343.421478,152.063568 
	C353.853638,162.398102 363.956390,172.698151 374.059143,182.998199 
z"/>
<path fill="#F8FAFB" opacity="1.000000" stroke="none" 
	d="
M464.975342,433.371918 
	C465.488464,433.068512 466.255127,432.898102 466.551117,433.195770 
	C473.582733,440.266815 480.563782,447.388123 487.261108,454.777039 
	C485.387085,453.917053 483.607849,452.975922 482.259216,451.609711 
	C476.440582,445.715363 470.748077,439.696503 464.975342,433.371918 
z"/>
<path fill="#F8FAFB" opacity="1.000000" stroke="none" 
	d="
M389.960480,201.381561 
	C394.047089,205.154236 398.173889,209.277496 402.121460,213.734177 
	C397.961670,209.955780 393.981171,205.843964 389.960480,201.381561 
z"/>
<path fill="#F8FAFB" opacity="1.000000" stroke="none" 
	d="
M637.583130,188.599213 
	C641.560486,190.895996 645.099731,193.511536 645.699463,198.688507 
	C645.423767,199.040512 645.013733,198.987335 644.857178,198.694473 
	C642.113403,195.637421 639.526245,192.873245 636.953491,189.836945 
	C636.971863,189.383194 636.975708,189.201553 636.979492,189.019928 
	C636.979492,189.019928 637.374146,188.727936 637.583130,188.599213 
z"/>
<path fill="#F8FAFB" opacity="1.000000" stroke="none" 
	d="
M408.961243,221.396210 
	C410.985199,222.823044 413.047119,224.600098 415.036987,226.728027 
	C412.976379,225.301422 410.987793,223.523926 408.961243,221.396210 
z"/>
<path fill="#F8FAFB" opacity="1.000000" stroke="none" 
	d="
M489.974518,458.380432 
	C491.476593,459.170593 493.010376,460.312866 494.257202,461.755554 
	C492.648895,460.948181 491.327545,459.840332 489.974518,458.380432 
z"/>
<path fill="#F8FAFB" opacity="1.000000" stroke="none" 
	d="
M402.049927,214.382446 
	C403.363617,215.161453 404.796387,216.267471 406.089935,217.724182 
	C404.690125,216.953064 403.429565,215.831253 402.049927,214.382446 
z"/>
<path fill="#F8FAFB" opacity="1.000000" stroke="none" 
	d="
M386.959473,198.389862 
	C387.973022,198.814407 389.024445,199.592529 390.022644,200.725311 
	C388.978760,200.301132 387.988037,199.522293 386.959473,198.389862 
z"/>
<path fill="#F8FAFB" opacity="1.000000" stroke="none" 
	d="
M383.959351,195.393951 
	C384.989685,195.815201 386.056305,196.590958 387.043335,197.722672 
	C385.974365,197.301895 384.985016,196.525177 383.959351,195.393951 
z"/>
<path fill="#F8FAFB" opacity="1.000000" stroke="none" 
	d="
M486.973694,455.378784 
	C488.127655,455.817535 489.314240,456.609406 490.237610,457.730469 
	C488.985046,457.283752 487.995667,456.507812 486.973694,455.378784 
z"/>
<path fill="#F8FAFB" opacity="1.000000" stroke="none" 
	d="
M377.049133,188.375381 
	C378.022278,188.818893 379.115021,189.590256 380.082275,190.717758 
	C379.027435,190.283661 378.098083,189.493454 377.049133,188.375381 
z"/>
<path fill="#F8FAFB" opacity="1.000000" stroke="none" 
	d="
M405.960022,218.396500 
	C406.669586,218.479553 407.416687,218.914413 408.060852,219.713867 
	C407.304474,219.635086 406.651031,219.191681 405.960022,218.396500 
z"/>
<path fill="#F8FAFB" opacity="1.000000" stroke="none" 
	d="
M461.970337,429.395172 
	C462.792084,429.881836 463.656158,430.696503 464.245117,431.784210 
	C463.317566,431.279236 462.665131,430.501221 461.970337,429.395172 
z"/>
<path fill="#8877FE" opacity="1.000000" stroke="none" 
	d="
M342.972961,152.075500 
	C343.079193,151.080185 343.230804,150.105316 343.725250,149.018646 
	C344.068085,148.906845 344.102234,148.985947 344.048767,149.304169 
	C343.694214,150.424622 343.393158,151.226837 343.092102,152.029068 
	C343.092102,152.029068 343.018341,152.095932 342.972961,152.075500 
z"/>
<path fill="#D0B5F9" opacity="1.000000" stroke="none" 
	d="
M347.587708,147.945801 
	C347.955811,147.897980 348.137299,148.233994 347.750641,148.544952 
	C346.276733,148.899277 345.189484,148.942612 344.102234,148.985947 
	C344.102234,148.985947 344.068085,148.906845 344.026672,148.895966 
	C345.063354,148.587952 346.141510,148.290787 347.587708,147.945801 
z"/>
<path fill="#F0D5FC" opacity="1.000000" stroke="none" 
	d="
M419.628143,228.153442 
	C420.024567,228.238312 420.007446,228.672516 419.976318,228.887421 
	C419.009979,228.949783 418.074738,228.797256 416.967163,228.324722 
	C417.607117,228.026016 418.419403,228.047302 419.628143,228.153442 
z"/>
<path fill="#24DBFE" opacity="1.000000" stroke="none" 
	d="
M539.315979,505.916748 
	C539.004211,505.836182 538.992798,505.430206 538.984863,505.227844 
	C539.434204,505.023132 539.891418,505.020782 540.689941,505.048370 
	C540.563477,505.384644 540.095581,505.690979 539.315979,505.916748 
z"/>
<path fill="#D0B5F9" opacity="1.000000" stroke="none" 
	d="
M596.696533,148.086060 
	C597.019470,148.168839 597.002075,148.524277 596.649658,148.697418 
	C595.860962,148.765396 595.424744,148.660217 594.988525,148.555023 
	C594.988525,148.555023 594.927673,148.208511 594.987427,148.042770 
	C595.489319,147.919113 595.931458,147.961197 596.696533,148.086060 
z"/>
<path fill="#D12EFD" opacity="1.000000" stroke="none" 
	d="
M645.013733,198.987335 
	C645.013733,198.987335 645.423767,199.040512 645.628845,199.066406 
	C645.923767,199.269348 646.013611,199.446426 646.259033,199.879486 
	C646.130188,200.363251 645.845947,200.591049 645.280945,200.487152 
	C645.004700,199.766098 645.009216,199.376724 645.013733,198.987335 
z"/>
<path fill="#F0D5FC" opacity="1.000000" stroke="none" 
	d="
M668.958740,228.476288 
	C669.403259,228.191666 669.857544,228.121826 670.653442,228.110352 
	C670.541931,228.447052 670.088623,228.725372 669.337524,229.059418 
	C669.039673,229.115143 668.968445,228.691071 668.958740,228.476288 
z"/>
<path fill="#F8FAFB" opacity="1.000000" stroke="none" 
	d="
M671.912598,225.784180 
	C671.379211,225.550156 670.921143,224.986282 670.762573,224.186523 
	C671.370667,224.451859 671.679199,224.953094 671.912598,225.784180 
z"/>
<path fill="#F8FAFB" opacity="1.000000" stroke="none" 
	d="
M415.018646,227.330948 
	C415.285797,227.127548 415.650055,227.223038 416.149353,227.597931 
	C415.894836,227.794846 415.505280,227.712341 415.018646,227.330948 
z"/>
<path fill="#F8FAFB" opacity="1.000000" stroke="none" 
	d="
M382.988220,194.293030 
	C383.293396,194.160629 383.667938,194.292175 384.007141,194.752136 
	C383.667053,194.906036 383.362305,194.731506 382.988220,194.293030 
z"/>
<path fill="#F8FAFB" opacity="1.000000" stroke="none" 
	d="
M381.987213,193.294342 
	C382.294678,193.160645 382.670776,193.291183 383.008667,193.751343 
	C382.665619,193.906830 382.360718,193.732681 381.987213,193.294342 
z"/>
<path fill="#F8FAFB" opacity="1.000000" stroke="none" 
	d="
M380.988281,192.295929 
	C381.297699,192.159058 381.674988,192.286026 382.010803,192.747086 
	C381.664978,192.907379 381.360565,192.733582 380.988281,192.295929 
z"/>
<path fill="#F8FAFB" opacity="1.000000" stroke="none" 
	d="
M463.995789,432.279480 
	C464.378021,432.106476 464.826172,432.202942 465.134460,432.683960 
	C464.683655,432.895355 464.372711,432.722137 463.995789,432.279480 
z"/>
<path fill="#F8FAFB" opacity="1.000000" stroke="none" 
	d="
M407.985840,220.296600 
	C408.298187,220.160446 408.677979,220.288559 409.012512,220.749268 
	C408.662598,220.908203 408.357910,220.734528 407.985840,220.296600 
z"/>
<path fill="#F8FAFB" opacity="1.000000" stroke="none" 
	d="
M374.992004,186.295273 
	C375.312439,186.154816 375.702942,186.275208 376.029602,186.737000 
	C375.664551,186.904297 375.363312,186.730209 374.992004,186.295273 
z"/>
<path fill="#F8FAFB" opacity="1.000000" stroke="none" 
	d="
M379.991455,191.292236 
	C380.303833,191.157013 380.686523,191.283554 381.018616,191.744934 
	C380.665955,191.904510 380.363892,191.729248 379.991455,191.292236 
z"/>
<path fill="#F8FAFB" opacity="1.000000" stroke="none" 
	d="
M375.993225,187.294205 
	C376.311981,187.155136 376.702454,187.275833 377.029236,187.737411 
	C376.665375,187.903519 376.365143,187.728745 375.993225,187.294205 
z"/>
<path fill="#8877FE" opacity="1.000000" stroke="none" 
	d="
M461.450836,235.986389 
	C459.893280,233.572601 463.636719,229.400986 458.369263,227.652359 
	C457.149200,226.427567 456.502045,225.443176 455.601288,224.833267 
	C447.253571,219.180969 438.830200,213.640213 430.491455,207.974838 
	C420.108704,200.920761 409.727142,193.861038 399.503479,186.581238 
	C398.084595,185.570892 397.571747,183.288132 396.380432,181.123810 
	C393.678345,181.223099 390.332916,181.214569 389.578308,176.663757 
	C389.465698,175.984451 387.834381,175.417664 386.814423,175.055771 
	C384.352631,174.182266 381.537231,173.938644 379.394989,172.595047 
	C370.296112,166.888290 361.507324,160.681946 352.342255,155.089020 
	C349.623871,153.430191 348.536591,151.787918 348.994690,148.856018 
	C355.018524,148.821411 361.042389,148.786789 367.536682,149.188232 
	C370.442017,152.135391 372.545288,155.128342 375.370361,157.072266 
	C386.327026,164.611481 397.596863,171.694107 408.595917,179.173462 
	C428.568268,192.754654 448.374878,206.579712 468.354065,220.150757 
	C488.766663,234.016174 509.286133,247.724640 529.802551,261.436371 
	C533.325317,263.790771 537.066528,265.818237 540.706848,267.996765 
	C540.753601,273.690460 540.800415,279.384186 540.418457,285.530518 
	C537.410645,284.574188 534.702026,283.357635 532.274231,281.723785 
	C520.065796,273.507843 507.923615,265.193390 495.772736,256.892212 
	C488.943604,252.226700 482.240265,247.368607 475.293213,242.887222 
	C470.964325,240.094727 467.467407,235.449081 461.450836,235.986389 
z"/>
<path fill="#B847FE" opacity="1.000000" stroke="none" 
	d="
M463.990845,148.868942 
	C473.678528,148.822174 483.366211,148.775406 493.522278,149.194550 
	C495.040527,151.346848 495.709839,153.564133 497.201874,154.633728 
	C507.149902,161.765259 517.210144,168.746384 527.374207,175.567261 
	C531.018555,178.012863 535.051208,179.879791 539.256531,182.204254 
	C539.151733,182.499649 538.817505,183.442322 538.313477,184.863663 
	C539.609863,184.496201 540.374329,184.279495 541.114258,184.309570 
	C541.089661,184.556366 541.167908,185.046173 541.167908,185.046173 
	C541.167908,186.520569 541.167908,187.994965 541.167908,190.202484 
	C545.236267,190.202484 549.171753,190.202484 553.687500,190.630295 
	C556.699768,191.590073 559.131775,192.122025 560.657837,192.455826 
	C562.350891,195.726303 563.727051,198.384628 565.086548,201.294449 
	C565.101074,201.711044 565.132202,201.876144 565.163330,202.041245 
	C565.104370,202.789948 565.045471,203.538666 564.781616,204.745407 
	C564.378357,205.535065 564.470642,205.789124 564.853455,205.965591 
	C567.290649,206.374023 569.727844,206.782455 572.662964,207.569824 
	C574.101624,207.752335 575.042419,207.555908 575.983215,207.359497 
	C577.058838,207.294830 578.134521,207.230148 579.608398,207.610489 
	C580.591614,209.324631 580.839172,211.039093 581.821716,211.783554 
	C585.503479,214.573288 589.581970,216.846863 593.210022,219.697800 
	C596.352783,222.167419 599.086914,225.157028 602.001648,227.916794 
	C592.643860,227.959641 583.286072,228.002472 573.420959,227.639481 
	C571.473206,225.933380 569.964355,224.700516 568.603943,223.321335 
	C562.236450,216.866241 551.904480,214.839691 548.350342,205.194901 
	C548.142395,204.630661 546.938232,204.487045 546.287292,204.022293 
	C544.504700,202.749527 542.804199,201.360260 541.003784,200.114502 
	C539.860046,199.323044 538.660767,198.536743 537.373352,198.042404 
	C533.911682,196.713211 530.137451,195.992188 526.947876,194.206894 
	C521.617371,191.223312 516.604675,187.659561 511.529449,184.234406 
	C496.413879,174.033234 481.298096,163.831100 466.302887,153.455215 
	C465.066406,152.599640 464.740082,150.428711 463.990845,148.868942 
z"/>
<path fill="#9F61FE" opacity="1.000000" stroke="none" 
	d="
M401.989502,148.862549 
	C410.333496,148.825378 418.677551,148.788208 427.640259,149.131271 
	C429.811188,150.879028 432.451111,152.065903 432.713867,153.647598 
	C433.535614,158.595123 437.128387,160.912506 440.610962,163.280533 
	C453.734833,172.204437 467.189514,180.654816 480.125458,189.838715 
	C496.062927,201.153473 511.813660,212.687317 529.677734,220.911560 
	C530.922852,221.484772 532.438171,222.529282 532.835388,223.693298 
	C534.182129,227.639328 536.959290,228.951202 540.766724,228.928345 
	C540.794556,233.645203 540.822327,238.362076 540.406616,243.538208 
	C537.046265,242.564590 533.920776,241.441864 531.249451,239.644272 
	C520.551147,232.445145 510.049683,224.953979 499.369446,217.727402 
	C487.309143,209.567001 475.081177,201.654327 463.024933,193.488022 
	C450.012329,184.673904 437.134491,175.660767 424.122620,166.845535 
	C423.191376,166.214645 421.552673,166.126434 420.398895,166.413315 
	C415.637787,167.597183 412.878754,164.850891 410.431213,161.564865 
	C408.453278,158.909302 406.683533,156.097687 404.847046,153.338257 
	C403.866547,151.865005 402.940247,150.355637 401.989502,148.862549 
z"/>
<path fill="#AE52FE" opacity="1.000000" stroke="none" 
	d="
M463.526367,148.805725 
	C464.740082,150.428711 465.066406,152.599640 466.302887,153.455215 
	C481.298096,163.831100 496.413879,174.033234 511.529449,184.234406 
	C516.604675,187.659561 521.617371,191.223312 526.947876,194.206894 
	C530.137451,195.992188 533.911682,196.713211 537.373352,198.042404 
	C538.660767,198.536743 539.860046,199.323044 541.003784,200.114502 
	C542.804199,201.360260 544.504700,202.749527 546.287292,204.022293 
	C546.938232,204.487045 548.142395,204.630661 548.350342,205.194901 
	C551.904480,214.839691 562.236450,216.866241 568.603943,223.321335 
	C569.964355,224.700516 571.473206,225.933380 572.955994,227.574799 
	C565.641602,227.957916 558.284851,227.999893 550.406738,227.646591 
	C545.242920,222.004318 540.675110,216.687714 535.899231,211.565125 
	C534.861084,210.451645 533.141113,209.847198 531.625427,209.329483 
	C527.036926,207.762192 521.949890,207.111694 517.867676,204.720291 
	C509.876831,200.039185 502.438110,194.416397 494.764984,189.192032 
	C479.417175,178.742264 463.938446,168.476501 448.821259,157.703262 
	C445.760681,155.522171 441.158905,153.921494 440.996490,148.854416 
	C448.351624,148.817123 455.706757,148.779816 463.526367,148.805725 
z"/>
<path fill="#9070FE" opacity="1.000000" stroke="none" 
	d="
M540.782837,267.556488 
	C537.066528,265.818237 533.325317,263.790771 529.802551,261.436371 
	C509.286133,247.724640 488.766663,234.016174 468.354065,220.150757 
	C448.374878,206.579712 428.568268,192.754654 408.595917,179.173462 
	C397.596863,171.694107 386.327026,164.611481 375.370361,157.072266 
	C372.545288,155.128342 370.442017,152.135391 368.002380,149.243408 
	C372.686432,148.825623 377.375305,148.788757 382.561310,149.177597 
	C386.707550,157.574585 395.122742,158.965240 400.885834,164.017715 
	C401.191925,163.644394 401.498016,163.271072 401.804108,162.897751 
	C400.932770,161.599335 400.061401,160.300919 399.190063,159.002502 
	C399.366730,158.611145 399.543396,158.219803 399.720062,157.828445 
	C401.415710,158.329575 403.810913,158.291534 404.685150,159.425797 
	C408.341766,164.169937 415.480072,166.303818 415.618683,173.775528 
	C415.631226,174.450729 416.909210,175.204758 417.716797,175.747742 
	C432.405975,185.623901 447.137543,195.437210 461.808197,205.340744 
	C471.958435,212.192734 482.015961,219.181839 492.140411,226.072235 
	C502.964630,233.438919 513.734985,240.889954 524.697266,248.046295 
	C529.738098,251.337021 535.180725,254.012360 540.441162,256.966766 
	C540.580383,260.349915 540.719604,263.733093 540.782837,267.556488 
z"/>
<path fill="#9569FE" opacity="1.000000" stroke="none" 
	d="
M540.506714,256.528198 
	C535.180725,254.012360 529.738098,251.337021 524.697266,248.046295 
	C513.734985,240.889954 502.964630,233.438919 492.140411,226.072235 
	C482.015961,219.181839 471.958435,212.192734 461.808197,205.340744 
	C447.137543,195.437210 432.405975,185.623901 417.716797,175.747742 
	C416.909210,175.204758 415.631226,174.450729 415.618683,173.775528 
	C415.480072,166.303818 408.341766,164.169937 404.685150,159.425797 
	C403.810913,158.291534 401.415710,158.329575 399.720062,157.828445 
	C399.543396,158.219803 399.366730,158.611145 399.190063,159.002502 
	C400.061401,160.300919 400.932770,161.599335 401.804108,162.897751 
	C401.498016,163.271072 401.191925,163.644394 400.885834,164.017715 
	C395.122742,158.965240 386.707550,157.574585 383.024109,149.235321 
	C389.013428,148.827927 395.037140,148.788498 401.525146,148.805817 
	C402.940247,150.355637 403.866547,151.865005 404.847046,153.338257 
	C406.683533,156.097687 408.453278,158.909302 410.431213,161.564865 
	C412.878754,164.850891 415.637787,167.597183 420.398895,166.413315 
	C421.552673,166.126434 423.191376,166.214645 424.122620,166.845535 
	C437.134491,175.660767 450.012329,184.673904 463.024933,193.488022 
	C475.081177,201.654327 487.309143,209.567001 499.369446,217.727402 
	C510.049683,224.953979 520.551147,232.445145 531.249451,239.644272 
	C533.920776,241.441864 537.046265,242.564590 540.329590,243.998505 
	C540.654907,248.029526 540.613586,252.059570 540.506714,256.528198 
z"/>
<path fill="#24DBFE" opacity="1.000000" stroke="none" 
	d="
M540.631104,431.866760 
	C540.714661,438.609253 540.798279,445.351807 540.414551,452.552673 
	C537.686707,452.177399 535.172424,451.730255 533.210205,450.442230 
	C525.340759,445.276520 517.841370,439.518707 509.784241,434.680817 
	C506.489777,432.702606 501.760834,430.987854 498.323120,431.813202 
	C491.021149,433.566284 486.502075,431.161072 485.897278,423.637756 
	C485.742279,421.709442 484.770416,419.449097 483.418549,418.095795 
	C480.402466,415.076508 476.989166,412.429932 473.590851,409.822906 
	C469.630157,406.784424 465.512817,403.950134 461.463440,401.027252 
	C461.398193,398.960236 461.332947,396.893250 461.662292,394.303986 
	C461.875366,392.535339 461.693817,391.288910 461.512268,390.042511 
	C461.436096,386.015167 461.359894,381.987854 461.714905,377.631226 
	C462.622925,379.321930 463.099670,381.341888 463.438507,382.777496 
	C466.052460,384.238647 468.451294,385.268860 470.495819,386.778809 
	C477.508575,391.957825 484.037994,397.914703 491.497559,402.308899 
	C494.802948,404.256073 496.135712,409.591339 501.361542,408.504456 
	C501.702576,408.433533 502.312775,410.346069 503.011047,411.150879 
	C504.234528,412.560913 505.404358,414.235321 506.981506,415.082581 
	C513.441040,418.552612 520.033630,421.776794 526.601562,425.042633 
	C531.257874,427.357941 535.953186,429.594849 540.631104,431.866760 
z"/>
<path fill="#31CEFE" opacity="1.000000" stroke="none" 
	d="
M540.725342,431.486511 
	C535.953186,429.594849 531.257874,427.357941 526.601562,425.042633 
	C520.033630,421.776794 513.441040,418.552612 506.981506,415.082581 
	C505.404358,414.235321 504.234528,412.560913 503.011047,411.150879 
	C502.312775,410.346069 501.702576,408.433533 501.361542,408.504456 
	C496.135712,409.591339 494.802948,404.256073 491.497559,402.308899 
	C484.037994,397.914703 477.508575,391.957825 470.495819,386.778809 
	C468.451294,385.268860 466.052460,384.238647 463.438507,382.777496 
	C463.099670,381.341888 462.622925,379.321930 461.809143,377.180542 
	C461.405212,372.018402 461.338226,366.977692 461.709595,361.485779 
	C466.985046,363.816284 472.004883,366.325806 476.626709,369.428192 
	C493.760101,380.928925 510.705475,392.709961 527.855957,404.184692 
	C531.868042,406.868988 536.408325,408.763855 540.705566,411.021912 
	C540.743591,417.716736 540.781616,424.411499 540.725342,431.486511 
z"/>
<path fill="#7B84FF" opacity="1.000000" stroke="none" 
	d="
M461.346863,236.446320 
	C467.467407,235.449081 470.964325,240.094727 475.293213,242.887222 
	C482.240265,247.368607 488.943604,252.226700 495.772736,256.892212 
	C507.923615,265.193390 520.065796,273.507843 532.274231,281.723785 
	C534.702026,283.357635 537.410645,284.574188 540.341309,285.992310 
	C540.747559,292.359558 540.802246,298.717712 540.402100,305.538391 
	C536.494080,304.260803 532.812866,302.860870 529.624878,300.724945 
	C509.917023,287.520691 490.376831,274.065430 470.617157,260.940063 
	C468.044678,259.231323 464.532043,258.937988 461.454865,257.989075 
	C461.384186,250.961472 461.313538,243.933868 461.346863,236.446320 
z"/>
<path fill="#3DC2FF" opacity="1.000000" stroke="none" 
	d="
M540.791992,410.558624 
	C536.408325,408.763855 531.868042,406.868988 527.855957,404.184692 
	C510.705475,392.709961 493.760101,380.928925 476.626709,369.428192 
	C472.004883,366.325806 466.985046,363.816284 461.806854,361.031189 
	C461.397552,353.331635 461.329254,345.635529 461.362183,337.482666 
	C465.775299,345.120453 474.371063,348.030548 481.218018,352.924957 
	C495.641235,363.235077 510.334808,373.216034 525.410767,382.533722 
	C529.931519,385.327759 533.499695,390.702332 540.314575,390.009827 
	C540.763062,396.706696 540.820740,403.401031 540.791992,410.558624 
z"/>
<path fill="#18E7FD" opacity="1.000000" stroke="none" 
	d="
M461.368439,401.483582 
	C465.512817,403.950134 469.630157,406.784424 473.590851,409.822906 
	C476.989166,412.429932 480.402466,415.076508 483.418549,418.095795 
	C484.770416,419.449097 485.742279,421.709442 485.897278,423.637756 
	C486.502075,431.161072 491.021149,433.566284 498.323120,431.813202 
	C501.760834,430.987854 506.489777,432.702606 509.784241,434.680817 
	C517.841370,439.518707 525.340759,445.276520 533.210205,450.442230 
	C535.172424,451.730255 537.686707,452.177399 540.327637,453.014526 
	C540.766968,459.710358 540.825867,466.402710 540.798828,473.558350 
	C535.795410,471.168854 530.787231,468.460114 525.978943,465.433807 
	C515.358826,458.749573 504.841736,451.901489 494.271637,445.137451 
	C493.717773,444.782990 493.001678,444.266998 492.462158,444.367676 
	C484.815277,445.794708 480.805786,439.222961 475.099548,436.438080 
	C473.595490,435.704041 471.652191,433.947754 471.567169,432.559479 
	C471.188843,426.380371 466.622314,425.433167 461.807068,424.098663 
	C461.403503,423.576172 461.340759,423.114014 461.680115,422.209656 
	C461.879700,420.188141 461.677155,418.608795 461.474640,417.029480 
	C461.407593,411.999634 461.340515,406.969788 461.368439,401.483582 
z"/>
<path fill="#6F8FFE" opacity="1.000000" stroke="none" 
	d="
M461.353424,258.434265 
	C464.532043,258.937988 468.044678,259.231323 470.617157,260.940063 
	C490.376831,274.065430 509.917023,287.520691 529.624878,300.724945 
	C532.812866,302.860870 536.494080,304.260803 540.325317,306.000610 
	C540.710266,311.753357 540.717224,317.506439 540.169067,323.630798 
	C536.947754,322.468903 534.199768,321.061005 531.629456,319.381134 
	C520.138123,311.870605 508.771545,304.165741 497.184052,296.807983 
	C494.433899,295.061737 491.004608,294.385071 487.887695,293.216400 
	C480.531128,285.974243 473.184784,278.721558 465.808319,271.499756 
	C464.508545,270.227234 463.082428,269.083771 461.367310,267.930908 
	C461.097321,264.947235 461.174652,261.913330 461.353424,258.434265 
z"/>
<path fill="#A659FD" opacity="1.000000" stroke="none" 
	d="
M440.536255,148.795776 
	C441.158905,153.921494 445.760681,155.522171 448.821259,157.703262 
	C463.938446,168.476501 479.417175,178.742264 494.764984,189.192032 
	C502.438110,194.416397 509.876831,200.039185 517.867676,204.720291 
	C521.949890,207.111694 527.036926,207.762192 531.625427,209.329483 
	C533.141113,209.847198 534.861084,210.451645 535.899231,211.565125 
	C540.675110,216.687714 545.242920,222.004318 549.941895,227.581497 
	C547.630432,227.985794 545.262512,228.059891 542.205994,228.173309 
	C541.167419,228.377747 541.022949,228.651413 541.083984,229.033646 
	C541.083984,229.033646 540.920654,228.995728 540.843689,228.962036 
	C536.959290,228.951202 534.182129,227.639328 532.835388,223.693298 
	C532.438171,222.529282 530.922852,221.484772 529.677734,220.911560 
	C511.813660,212.687317 496.062927,201.153473 480.125458,189.838715 
	C467.189514,180.654816 453.734833,172.204437 440.610962,163.280533 
	C437.128387,160.912506 433.535614,158.595123 432.713867,153.647598 
	C432.451111,152.065903 429.811188,150.879028 428.104004,149.177185 
	C431.991364,148.807602 436.033691,148.772369 440.536255,148.795776 
z"/>
<path fill="#C43AFE" opacity="1.000000" stroke="none" 
	d="
M602.466370,227.982971 
	C599.086914,225.157028 596.352783,222.167419 593.210022,219.697800 
	C589.581970,216.846863 585.503479,214.573288 581.821716,211.783554 
	C580.839172,211.039093 580.591614,209.324631 580.005859,207.695145 
	C589.696838,207.248260 599.388611,207.161728 609.549561,207.504181 
	C612.232117,210.230560 614.270081,212.735794 616.694885,214.782806 
	C622.026672,219.283981 627.553955,223.553528 633.001465,227.917603 
	C622.978027,227.961472 612.954529,228.005310 602.466370,227.982971 
z"/>
<path fill="#6698FD" opacity="1.000000" stroke="none" 
	d="
M488.040222,293.505615 
	C491.004608,294.385071 494.433899,295.061737 497.184052,296.807983 
	C508.771545,304.165741 520.138123,311.870605 531.629456,319.381134 
	C534.199768,321.061005 536.947754,322.468903 540.033813,324.019897 
	C540.589539,329.072906 540.725281,334.108093 540.674683,339.691467 
	C540.333862,340.527222 540.407227,340.758759 540.708435,340.934357 
	C540.422729,342.180328 540.136963,343.426300 539.751587,345.106934 
	C522.353516,327.792175 505.273132,310.793518 488.040222,293.505615 
z"/>
<path fill="#4FAFFD" opacity="1.000000" stroke="none" 
	d="
M513.097534,355.563354 
	C510.207733,354.715210 506.833496,354.057220 504.147400,352.329437 
	C491.856232,344.423279 479.782562,336.179596 467.559937,328.165222 
	C465.973389,327.124908 463.975555,326.711945 461.814087,326.012268 
	C461.397369,324.286774 461.334778,322.557495 461.568054,320.380463 
	C461.738770,319.626068 461.613586,319.319366 461.488434,319.012695 
	C461.410248,314.646973 461.332062,310.281281 461.535461,305.441162 
	C461.817078,304.966736 462.202454,304.885834 462.202454,304.885834 
	C477.007446,319.839294 491.796631,334.808502 506.636536,349.727234 
	C508.602142,351.703278 510.825867,353.422607 513.097534,355.563354 
z"/>
<path fill="#D12EFD" opacity="1.000000" stroke="none" 
	d="
M633.465881,227.986572 
	C627.553955,223.553528 622.026672,219.283981 616.694885,214.782806 
	C614.270081,212.735794 612.232117,210.230560 610.012695,207.581528 
	C617.697266,207.149551 625.387817,207.069199 633.542847,207.060883 
	C636.232910,209.373947 638.284851,211.828049 640.719177,213.813110 
	C646.355103,218.408737 652.175964,222.777420 657.963379,227.578369 
	C649.979980,227.964233 641.955139,228.009888 633.465881,227.986572 
z"/>
<path fill="#0DF4FD" opacity="1.000000" stroke="none" 
	d="
M461.380066,417.434082 
	C461.677155,418.608795 461.879700,420.188141 461.775269,421.869659 
	C461.407379,420.594147 461.346436,419.216400 461.380066,417.434082 
z"/>
<path fill="#18E7FD" opacity="1.000000" stroke="none" 
	d="
M461.412079,390.426575 
	C461.693817,391.288910 461.875366,392.535339 461.769226,393.872253 
	C461.424957,392.912048 461.368439,391.861328 461.412079,390.426575 
z"/>
<path fill="#48B7FE" opacity="1.000000" stroke="none" 
	d="
M461.421814,319.256348 
	C461.613586,319.319366 461.738770,319.626068 461.674561,319.960419 
	C461.441833,319.825378 461.398499,319.662659 461.421814,319.256348 
z"/>
<path fill="#F0D5FC" opacity="1.000000" stroke="none" 
	d="
M541.270386,228.938538 
	C541.022949,228.651413 541.167419,228.377747 541.765015,228.221405 
	C541.882935,228.485031 541.697632,228.689438 541.270386,228.938538 
z"/>
<path fill="#6698FD" opacity="1.000000" stroke="none" 
	d="
M462.093323,304.725677 
	C462.202454,304.885834 461.817078,304.966736 461.621490,304.984131 
	C461.612000,304.856171 461.798126,304.710846 462.093323,304.725677 
z"/>
<path fill="#6F8FFE" opacity="1.000000" stroke="none" 
	d="
M540.764465,340.718719 
	C540.407227,340.758759 540.333862,340.527222 540.602356,340.154755 
	C540.716492,340.069824 540.820496,340.503082 540.764465,340.718719 
z"/>
<path fill="#827EFE" opacity="1.000000" stroke="none" 
	d="
M348.785522,148.786652 
	C348.536591,151.787918 349.623871,153.430191 352.342255,155.089020 
	C361.507324,160.681946 370.296112,166.888290 379.394989,172.595047 
	C381.537231,173.938644 384.352631,174.182266 386.814423,175.055771 
	C387.834381,175.417664 389.465698,175.984451 389.578308,176.663757 
	C390.332916,181.214569 393.678345,181.223099 396.380432,181.123810 
	C397.571747,183.288132 398.084595,185.570892 399.503479,186.581238 
	C409.727142,193.861038 420.108704,200.920761 430.491455,207.974838 
	C438.830200,213.640213 447.253571,219.180969 455.601288,224.833267 
	C456.502045,225.443176 457.149200,226.427567 457.956909,227.579895 
	C453.307861,227.965759 448.615814,228.009964 443.461090,227.989960 
	C440.456818,225.682953 438.119995,223.139496 435.340149,221.246643 
	C418.415863,209.722580 401.443176,198.267105 384.347534,186.999802 
	C381.522949,185.138214 378.012970,184.316559 374.439453,183.006256 
	C363.956390,172.698151 353.853638,162.398102 343.421478,152.063568 
	C343.393158,151.226837 343.694214,150.424622 344.048767,149.304169 
	C345.189484,148.942612 346.276733,148.899277 347.755676,148.735840 
	C348.147369,148.615768 348.576324,148.717300 348.785522,148.786652 
z"/>
<path fill="#C43AFE" opacity="1.000000" stroke="none" 
	d="
M565.103210,201.042969 
	C563.727051,198.384628 562.350891,195.726303 560.657837,192.455826 
	C559.131775,192.122025 556.699768,191.590073 554.147339,190.709229 
	C564.043396,190.273178 574.059998,190.185989 584.547852,190.528229 
	C586.654114,192.625427 588.271240,194.311234 589.929138,195.955872 
	C591.599182,197.612564 593.309937,199.228287 595.002808,200.861969 
	C585.977661,200.952072 576.952576,201.042175 567.154297,201.085892 
	C565.955200,201.040665 565.529236,201.041809 565.103210,201.042969 
z"/>
<path fill="#D12EFD" opacity="1.000000" stroke="none" 
	d="
M595.467407,200.928009 
	C593.309937,199.228287 591.599182,197.612564 589.929138,195.955872 
	C588.271240,194.311234 586.654114,192.625427 585.010498,190.605896 
	C593.693481,190.170181 602.385132,190.086212 611.546570,190.438644 
	C613.103088,192.132507 614.309082,193.307556 615.248108,194.667023 
	C616.604187,196.630249 617.766602,198.727219 619.011719,200.767105 
	C611.318481,200.842758 603.625183,200.918411 595.467407,200.928009 
z"/>
<path fill="#DC24FD" opacity="1.000000" stroke="none" 
	d="
M619.474365,200.840622 
	C617.766602,198.727219 616.604187,196.630249 615.248108,194.667023 
	C614.309082,193.307556 613.103088,192.132507 612.010010,190.514343 
	C618.699341,190.055206 625.394958,189.956772 632.940857,189.887634 
	C634.840393,189.980972 635.889771,190.045013 636.939087,190.109070 
	C639.526245,192.873245 642.113403,195.637421 644.857178,198.694473 
	C645.009216,199.376724 645.004700,199.766098 645.002197,200.447510 
	C636.648499,200.797745 628.292725,200.855942 619.474365,200.840622 
z"/>
<path fill="#C43AFE" opacity="1.000000" stroke="none" 
	d="
M575.616821,207.279175 
	C575.042419,207.555908 574.101624,207.752335 573.090881,207.660873 
	C573.764099,207.314941 574.507202,207.256897 575.616821,207.279175 
z"/>
<path fill="#F0D5FC" opacity="1.000000" stroke="none" 
	d="
M565.086548,201.294434 
	C565.529236,201.041809 565.955200,201.040665 566.687683,201.132263 
	C566.556458,201.474762 566.118713,201.724503 565.422180,202.007736 
	C565.132202,201.876144 565.101074,201.711044 565.086548,201.294434 
z"/>
<path fill="#C43AFE" opacity="1.000000" stroke="none" 
	d="
M564.897827,205.731644 
	C564.470642,205.789124 564.378357,205.535065 564.718384,205.116013 
	C564.860168,205.028580 564.942139,205.497696 564.897827,205.731644 
z"/>
<path fill="#C43AFE" opacity="1.000000" stroke="none" 
	d="
M541.138855,184.062790 
	C540.374329,184.279495 539.609863,184.496201 538.313477,184.863663 
	C538.817505,183.442322 539.151733,182.499649 539.256531,182.204254 
	C535.051208,179.879791 531.018555,178.012863 527.374207,175.567261 
	C517.210144,168.746384 507.149902,161.765259 497.201874,154.633728 
	C495.709839,153.564133 495.040527,151.346848 493.985718,149.264282 
	C503.673615,148.821548 513.366394,148.774994 523.557007,149.168289 
	C527.293274,152.500504 530.274658,155.766846 533.823975,158.207108 
	C541.136353,163.234680 548.681274,167.939957 556.308044,172.479630 
	C557.683777,173.298492 560.259094,173.360626 561.679382,172.619736 
	C566.787109,169.955414 568.454163,170.190781 571.721130,175.174988 
	C570.898743,176.467712 570.061890,177.783157 568.748596,179.847488 
	C571.153870,179.084869 572.706482,178.592606 575.004578,177.863968 
	C575.004578,180.323288 575.004578,182.104263 575.004578,183.885223 
	C570.977783,183.956985 566.951050,184.028763 562.211670,184.112823 
	C561.330811,184.164948 561.162598,184.204773 560.994324,184.244598 
	C555.632263,184.211838 550.270203,184.179077 544.096985,184.115845 
	C542.570190,184.077835 541.854492,184.070312 541.138855,184.062790 
z"/>
<path fill="#D12EFD" opacity="1.000000" stroke="none" 
	d="
M575.468750,183.952942 
	C575.004578,182.104263 575.004578,180.323288 575.004578,177.863968 
	C572.706482,178.592606 571.153870,179.084869 568.748596,179.847488 
	C570.061890,177.783157 570.898743,176.467712 571.721130,175.174988 
	C568.454163,170.190781 566.787109,169.955414 561.679382,172.619736 
	C560.259094,173.360626 557.683777,173.298492 556.308044,172.479630 
	C548.681274,167.939957 541.136353,163.234680 533.823975,158.207108 
	C530.274658,155.766846 527.293274,152.500504 524.020020,149.244019 
	C532.344116,148.823883 540.703125,148.767838 549.558533,149.147217 
	C554.595215,155.420441 560.307434,159.517563 567.346924,161.970779 
	C571.397888,163.382523 575.327576,165.280838 579.057068,167.407074 
	C580.511414,168.236252 581.266418,170.292175 582.435486,171.922562 
	C582.497986,171.882111 583.183960,171.438324 583.935791,171.223999 
	C584.001648,171.453430 584.021729,171.930405 584.084351,172.297302 
	C588.432983,176.372955 592.719055,180.081726 597.005066,183.790497 
	C589.981018,183.867203 582.956970,183.943924 575.468750,183.952942 
z"/>
<path fill="#DC24FD" opacity="1.000000" stroke="none" 
	d="
M597.468750,183.861313 
	C592.719055,180.081726 588.432983,176.372955 584.334351,172.334503 
	C584.687744,171.975449 584.853638,171.946091 585.019592,171.916718 
	C594.086914,171.967484 603.179504,172.448151 612.212463,171.915512 
	C618.081665,171.569458 621.929993,173.860214 625.255676,178.118561 
	C626.254639,179.397644 627.458313,180.516876 628.781128,182.223129 
	C628.990723,183.060272 628.992615,183.383560 628.999756,183.706833 
	C627.267151,183.760345 625.534546,183.813843 623.286621,183.673737 
	C622.470886,183.320755 622.233887,183.399689 622.060303,183.716949 
	C614.017639,183.788681 605.975037,183.860397 597.468750,183.861313 
z"/>
<path fill="#F0D5FC" opacity="1.000000" stroke="none" 
	d="
M636.953491,189.836945 
	C635.889771,190.045013 634.840393,189.980972 633.407104,189.828339 
	C634.109070,189.496948 635.194885,189.254166 636.630127,189.015656 
	C636.975708,189.201553 636.971863,189.383194 636.953491,189.836945 
z"/>
<path fill="#F0D5FC" opacity="1.000000" stroke="none" 
	d="
M541.114258,184.309570 
	C541.854492,184.070312 542.570190,184.077835 543.632141,184.177628 
	C543.244202,184.521790 542.509949,184.773682 541.471802,185.035858 
	C541.167908,185.046173 541.089661,184.556366 541.114258,184.309570 
z"/>
<path fill="#D12EFD" opacity="1.000000" stroke="none" 
	d="
M629.249878,183.719513 
	C628.992615,183.383560 628.990723,183.060272 628.999756,182.495346 
	C629.005432,182.253754 629.335144,182.292847 629.498413,182.321167 
	C629.607788,182.810379 629.553894,183.271271 629.249878,183.719513 
z"/>
<path fill="#D12EFD" opacity="1.000000" stroke="none" 
	d="
M622.281616,183.775925 
	C622.233887,183.399689 622.470886,183.320755 622.858521,183.599304 
	C622.945740,183.718491 622.502869,183.834900 622.281616,183.775925 
z"/>
<path fill="#F0D5FC" opacity="1.000000" stroke="none" 
	d="
M561.096313,184.376984 
	C561.162598,184.204773 561.330811,184.164948 561.753052,184.177429 
	C562.007019,184.229721 561.658325,184.566925 561.658325,184.566925 
	C561.658325,184.566925 561.198364,184.509369 561.096313,184.376984 
z"/>
<path fill="#DC24FD" opacity="1.000000" stroke="none" 
	d="
M583.869995,170.994553 
	C583.183960,171.438324 582.497986,171.882111 582.435486,171.922562 
	C581.266418,170.292175 580.511414,168.236252 579.057068,167.407074 
	C575.327576,165.280838 571.397888,163.382523 567.346924,161.970779 
	C560.307434,159.517563 554.595215,155.420441 550.021423,149.224945 
	C564.675354,148.799011 579.362793,148.730774 594.519409,148.608765 
	C595.424744,148.660217 595.860962,148.765396 596.635620,148.874802 
	C602.150085,154.543457 607.326233,160.207886 611.917236,165.975037 
	C610.890259,166.125458 610.448364,166.173187 610.006470,166.220917 
	C602.596436,166.179214 595.186035,166.170242 587.776672,166.075882 
	C585.552124,166.047562 583.714722,166.226486 584.123535,169.842758 
	C583.996948,170.659958 583.933472,170.827255 583.869995,170.994553 
z"/>
<path fill="#F0D5FC" opacity="1.000000" stroke="none" 
	d="
M583.935791,171.223999 
	C583.933472,170.827255 583.996948,170.659958 584.185242,170.255051 
	C584.538696,170.474258 584.767334,170.931091 585.007751,171.652313 
	C584.853638,171.946091 584.687744,171.975449 584.271729,171.967621 
	C584.021729,171.930405 584.001648,171.453430 583.935791,171.223999 
z"/>
<path fill="#F0D5FC" opacity="1.000000" stroke="none" 
	d="
M610.166748,166.403320 
	C610.448364,166.173187 610.890259,166.125458 611.659790,166.151306 
	C611.433960,166.345184 610.880493,166.465454 610.166748,166.403320 
z"/>
</svg>